<svg width="24" height="24" viewBox="0 0 24 24" fill="none" xmlns="http://www.w3.org/2000/svg">
<path d="M19 11.6111C19.0027 12.6377 18.7628 13.6504 18.3 14.5667C17.7512 15.6647 16.9076 16.5882 15.8636 17.2339C14.8195 17.8795 13.6164 18.2217 12.3889 18.2222C11.3623 18.2249 10.3496 17.9851 9.43333 17.5222L5 19L6.47778 14.5667C6.01494 13.6504 5.7751 12.6377 5.77778 11.6111C5.77825 10.3836 6.12047 9.18046 6.76611 8.13644C7.41175 7.09243 8.3353 6.24879 9.43333 5.70002C10.3496 5.23719 11.3623 4.99735 12.3889 5.00002H12.7778C14.3989 5.08946 15.9301 5.77372 17.0782 6.9218C18.2263 8.06987 18.9105 9.60108 19 11.2222V11.6111Z" stroke="black" stroke-opacity="0.5" stroke-linecap="round" stroke-linejoin="round"/>
</svg>
