<svg width="64" height="64" viewBox="0 0 64 64" fill="none" xmlns="http://www.w3.org/2000/svg">
<rect x="0.75" y="0.75" width="62.5" height="62.5" rx="7.25" stroke="#EBEFF2" stroke-width="1.5"/>
<rect width="18.8235" height="7.52941" rx="2" transform="matrix(1 0 0 -1 23.1766 53)" fill="#1D8BC5"/>
<rect width="18.8235" height="7.52941" rx="2" transform="matrix(1 0 0 -1 10.0001 35.1176)" fill="#C4CCD7"/>
<rect width="18.8235" height="7.52941" rx="2" transform="matrix(1 0 0 -1 10.0001 17.2353)" fill="#C4CCD7"/>
<rect width="18.8235" height="7.52941" rx="2" transform="matrix(1 0 0 -1 35.4119 17.2353)" fill="#C4CCD7"/>
<rect width="18.8235" height="7.52941" rx="2" transform="matrix(1 0 0 -1 35.4119 35.1176)" fill="#C4CCD7"/>
<line y1="-0.5" x2="6.58824" y2="-0.5" transform="matrix(-4.37114e-08 -1 -1 4.37114e-08 32.5883 45.4706)" stroke="#C2CFE0"/>
<line y1="-0.5" x2="26.3529" y2="-0.5" transform="matrix(1 8.74228e-08 8.74228e-08 -1 19.4119 38.8824)" stroke="#C2CFE0"/>
<line y1="-0.5" x2="4.70588" y2="-0.5" transform="matrix(4.37114e-08 -1 -1 -4.37114e-08 44.8236 39.8235)" stroke="#C2CFE0"/>
<line y1="-0.5" x2="4.70588" y2="-0.5" transform="matrix(4.37114e-08 -1 -1 -4.37114e-08 19.4119 39.8235)" stroke="#C2CFE0"/>
<line y1="-0.5" x2="10.3529" y2="-0.5" transform="matrix(4.37114e-08 -1 -1 -4.37114e-08 19.4119 27.5882)" stroke="#C2CFE0"/>
<line y1="-0.5" x2="10.3529" y2="-0.5" transform="matrix(4.37114e-08 -1 -1 -4.37114e-08 44.8236 27.5882)" stroke="#C2CFE0"/>
</svg>
